<svg width="270" height="299" viewBox="0 0 270 299" fill="none" xmlns="http://www.w3.org/2000/svg">
<g clip-path="url(#clip0_396_721)">
<path d="M207.563 80.75C207.563 120.83 174.967 145.32 134.867 145.32C94.7673 145.32 62.1709 120.78 62.1709 80.75C62.1709 40.7196 94.7219 0 134.866 0C175.011 0 207.563 40.6701 207.563 80.75Z" fill="#211715"/>
<path d="M90.5919 134.943C100.721 134.943 108.932 125.85 108.932 114.633C108.932 103.416 100.721 94.3226 90.5919 94.3226C80.4628 94.3226 72.2515 103.416 72.2515 114.633C72.2515 125.85 80.4628 134.943 90.5919 134.943Z" fill="#989291"/>
<path d="M179.141 134.943C189.27 134.943 197.482 125.85 197.482 114.633C197.482 103.416 189.27 94.3226 179.141 94.3226C169.012 94.3226 160.801 103.416 160.801 114.633C160.801 125.85 169.012 134.943 179.141 134.943Z" fill="#989291"/>
<path d="M218.753 204.333L159.29 188.35H110.442L51.024 204.333C34.993 208.513 23.6689 225.872 23.6689 245.987V299H246.33V245.987C246.108 225.824 234.74 208.513 218.753 204.333Z" fill="black"/>
<path d="M107.511 158.253V184.957C107.511 201.677 119.767 215.25 134.866 215.25C149.965 215.25 162.221 201.677 162.221 184.957V158.253H107.511Z" fill="#989291"/>
<path d="M88.0605 92.1097V131.354C88.0605 160.467 109.465 184.957 135.754 184.367C161.111 183.777 181.672 160.86 181.672 132.534V92.061C181.672 76.9144 169.815 59.3579 157.025 64.7673C151.607 66.9802 148.943 72.7343 134.865 72.7343C123.008 72.7343 118.301 66.7345 112.706 64.7673C99.7844 60.1931 88.0605 76.9631 88.0605 92.1097Z" fill="#989291"/>
<rect x="184.865" y="130.644" width="2.43243" height="9.42793" fill="#211715"/>
<rect x="184.865" y="130.644" width="2.43243" height="9.42793" fill="#211715"/>
<rect x="184.865" y="130.644" width="2.43243" height="9.42793" fill="#211715"/>
<rect x="184.865" y="130.644" width="2.43243" height="9.42793" fill="#211715"/>
<path d="M126.486 133.338C134.499 138.216 141.176 135.371 143.513 133.338" stroke="black" stroke-width="2"/>
<rect x="98.5137" y="109.095" width="25.5405" height="5.38739" fill="#211715"/>
<rect x="144.729" y="109.095" width="25.5405" height="5.38739" fill="#211715"/>
<rect x="82.7026" y="130.644" width="2.43243" height="9.42793" fill="#211715"/>
<rect x="82.7026" y="130.644" width="2.43243" height="9.42793" fill="#211715"/>
<rect x="82.7026" y="130.644" width="2.43243" height="9.42793" fill="#211715"/>
<rect x="82.7026" y="130.644" width="2.43243" height="9.42793" fill="#211715"/>
</g>
<defs>
<clipPath id="clip0_396_721">
<rect width="270" height="299" fill="white"/>
</clipPath>
</defs>
</svg>
