<svg width="65" height="65" viewBox="0 0 65 65" fill="none" xmlns="http://www.w3.org/2000/svg">
<path d="M49.6641 49.6641H42.4409V38.3501C42.4409 35.6526 42.3922 32.1791 38.6831 32.1791C34.9213 32.1791 34.3444 35.1204 34.3444 38.151V49.6641H27.1213V26.3982H34.0559V29.5791H34.1534C35.5672 27.166 38.1997 25.7197 40.9947 25.8213C48.3153 25.8213 49.6681 30.6354 49.6681 36.9038L49.6641 49.6601V49.6641ZM18.9719 23.2172C17.8623 23.2119 16.7996 22.7691 16.0147 21.9848C15.2297 21.2006 14.7858 20.1384 14.7794 19.0288C14.7794 16.7294 16.6725 14.8363 18.9719 14.8363C21.2713 14.8363 23.1603 16.7294 23.1644 19.0288C23.1644 21.3282 21.2713 23.2172 18.9719 23.2172ZM22.5834 49.6641H15.3522V26.3982H22.5834V49.6641ZM53.2594 8.12506H11.7203C10.7784 8.11959 9.87243 8.48605 9.19922 9.14481C8.526 9.80357 8.13997 10.7014 8.125 11.6432V53.3569C8.13997 54.2987 8.526 55.1965 9.19922 55.8553C9.87243 56.5141 10.7784 56.8805 11.7203 56.8751H53.2634C54.2075 56.8827 55.1164 56.5175 55.7927 55.8587C56.469 55.1999 56.8579 54.3009 56.875 53.3569V11.6391C56.8579 10.6959 56.4687 9.79771 55.7922 9.14023C55.1157 8.48276 54.2067 8.11932 53.2634 8.12912L53.2594 8.12506Z" fill="#0DF7B0"/>
</svg>
