<svg width="59" height="59" viewBox="0 0 59 59" fill="none" xmlns="http://www.w3.org/2000/svg">
<g clip-path="url(#clip0_389_784)">
<path fill-rule="evenodd" clip-rule="evenodd" d="M29.5 0C45.7929 0 59 13.5403 59 30.2461C59 43.6067 50.5571 54.9407 38.8427 58.9438C37.347 59.2418 36.816 58.2972 36.816 57.4919C36.816 56.4948 36.8514 53.2381 36.8514 49.1907C36.8514 46.3705 35.9074 44.5298 34.8484 43.5917C41.418 42.8424 48.321 40.2845 48.321 28.6674C48.321 25.3634 47.1764 22.6673 45.2825 20.5492C45.5893 19.7851 46.6011 16.7087 44.9934 12.5433C44.9934 12.5433 42.5213 11.7328 36.8897 15.6445C34.5327 14.9749 32.0075 14.6379 29.5 14.6261C26.9925 14.6379 24.4703 14.9749 22.1162 15.6445C16.4787 11.7328 14.0007 12.5433 14.0007 12.5433C12.3989 16.7087 13.4107 19.7851 13.7146 20.5492C11.8295 22.6673 10.6761 25.3634 10.6761 28.6674C10.6761 40.255 17.5643 42.8522 24.1163 43.6162C23.2726 44.3714 22.5085 45.7037 22.243 47.6595C20.5615 48.4324 16.2899 49.77 13.6585 45.1474C13.6585 45.1474 12.098 42.2413 9.13615 42.0289C9.13615 42.0289 6.2599 41.9906 8.93555 43.8668C8.93555 43.8668 10.8678 44.7961 12.2101 48.2919C12.2101 48.2919 13.9417 53.6902 22.1486 51.8612C22.1634 54.3894 22.1899 56.7721 22.1899 57.4919C22.1899 58.2913 21.6471 59.227 20.175 58.9467C8.45174 54.9495 0 43.6096 0 30.2461C0 13.5403 13.2101 0 29.5 0Z" fill="#0DF7B0"/>
</g>
<defs>
<clipPath id="clip0_389_784">
<rect width="59" height="59" fill="white"/>
</clipPath>
</defs>
</svg>
