<svg width="60" height="60" viewBox="0 0 60 60" fill="none" xmlns="http://www.w3.org/2000/svg">
<path fill-rule="evenodd" clip-rule="evenodd" d="M39.087 38.2427C36.801 38.2427 34.884 36.3657 34.884 34.0503C34.884 31.7318 36.801 29.7935 39.087 29.7935C41.37 29.7935 43.221 31.7318 43.221 34.0503C43.221 36.3657 41.373 38.2427 39.087 38.2427ZM39.669 45.9888C37.65 48.0334 34.485 49.0283 29.997 49.0283C25.506 49.0283 22.344 48.0334 20.328 45.9888C19.89 45.5446 19.89 44.8262 20.328 44.3789C20.763 43.9347 21.474 43.9347 21.912 44.3789C23.487 45.9763 26.13 46.7549 29.997 46.7549C33.861 46.7549 36.507 45.9763 38.085 44.3789C38.52 43.9347 39.231 43.9347 39.669 44.3789C40.107 44.8262 40.107 45.5446 39.669 45.9888ZM16.776 34.0503C16.776 31.7349 18.69 29.7935 20.973 29.7935C23.256 29.7935 25.107 31.7349 25.107 34.0503C25.107 36.3657 23.256 38.2427 20.973 38.2427C18.69 38.2427 16.776 36.3657 16.776 34.0503ZM60 29.4404C60 25.6402 56.952 22.5483 53.205 22.5483C51.477 22.5483 49.848 23.2021 48.6 24.3735C44.115 21.4131 38.109 19.4995 31.458 19.2378L35.127 7.88086L44.763 10.1807C44.766 13.3085 47.274 15.8496 50.358 15.8496C53.442 15.8496 55.953 13.3026 55.953 10.1748C55.953 7.047 53.442 4.5 50.358 4.5C48.048 4.5 46.065 5.92323 45.21 7.95264C43.134 7.45668 35.712 5.68294 33.636 5.18701L29.106 19.2144C22.203 19.3452 15.948 21.2493 11.295 24.2798C10.062 23.1692 8.466 22.5483 6.792 22.5483C3.048 22.5483 0 25.6402 0 29.4404C0 31.8532 1.242 34.0643 3.228 35.3057C1.419 46.1434 14.01 55.5 29.874 55.5C45.672 55.5 58.221 46.2263 56.547 35.4434C58.671 34.2354 60 31.9719 60 29.4404Z" fill="#0DF7B0"/>
</svg>
