<svg width="60" height="60" viewBox="0 0 60 60" fill="none" xmlns="http://www.w3.org/2000/svg">
<path d="M53.8109 17.7875C53.8346 18.3149 53.8466 18.8449 53.8466 19.3771C53.8466 35.6125 41.4879 54.3324 18.8926 54.3324C11.9541 54.3324 5.49551 52.2984 0.0587158 48.8124C1.02106 48.9264 1.9977 48.9847 2.98981 48.9847C8.74618 48.9847 14.0427 47.0207 18.2487 43.7248C12.8713 43.6263 8.33508 40.074 6.77157 35.1931C7.5225 35.3369 8.29125 35.4141 9.08368 35.4141C10.2028 35.4141 11.2887 35.2633 12.32 34.9829C6.70032 33.854 2.46458 28.889 2.46458 22.9366C2.46458 22.8843 2.46458 22.8332 2.46586 22.7821C4.12208 23.7017 6.01594 24.2542 8.03086 24.3183C4.73391 22.1157 2.56559 18.3553 2.56559 14.0923C2.56559 11.8409 3.17028 9.73084 4.22883 7.91654C10.2882 15.3493 19.3391 20.2395 29.5498 20.7528C29.3407 19.8534 29.2313 18.916 29.2313 17.9525C29.2313 11.1684 34.7322 5.66748 41.5163 5.66748C45.0522 5.66748 48.2433 7.15975 50.484 9.54662C53.2833 8.99654 55.9113 7.97361 58.2851 6.56561C57.3679 9.43494 55.4217 11.842 52.884 13.3627C55.3695 13.0656 57.7386 12.4052 59.9413 11.4285C58.2947 13.8916 56.2109 16.0551 53.8109 17.7875Z" fill="#0DF7B0"/>
</svg>
